<mxfile host="Electron" agent="Mozilla/5.0 (Macintosh; Intel Mac OS X 10_15_7) AppleWebKit/537.36 (KHTML, like Gecko) draw.io/24.7.8 Chrome/128.0.6613.36 Electron/32.0.1 Safari/537.36" version="24.7.8" pages="7">
  <diagram name="Ejercicio 1" id="UL2acX34TQ2NcPj_bxZg">
    <mxGraphModel dx="1434" dy="808" grid="0" gridSize="10" guides="1" tooltips="1" connect="1" arrows="1" fold="1" page="0" pageScale="1" pageWidth="850" pageHeight="1100" math="0" shadow="0">
      <root>
        <mxCell id="0" />
        <mxCell id="1" parent="0" />
        <mxCell id="-Ga0ZPBd0PsVxvASPmi--14" style="edgeStyle=orthogonalEdgeStyle;rounded=0;orthogonalLoop=1;jettySize=auto;html=1;entryX=0;entryY=0.5;entryDx=0;entryDy=0;endArrow=none;endFill=0;" edge="1" parent="1" source="-Ga0ZPBd0PsVxvASPmi--1" target="-Ga0ZPBd0PsVxvASPmi--13">
          <mxGeometry relative="1" as="geometry" />
        </mxCell>
        <mxCell id="-Ga0ZPBd0PsVxvASPmi--1" value="Socio" style="whiteSpace=wrap;html=1;align=center;" vertex="1" parent="1">
          <mxGeometry x="113" y="93" width="100" height="40" as="geometry" />
        </mxCell>
        <mxCell id="-Ga0ZPBd0PsVxvASPmi--4" value="Libro" style="whiteSpace=wrap;html=1;align=center;" vertex="1" parent="1">
          <mxGeometry x="547" y="93" width="100" height="40" as="geometry" />
        </mxCell>
        <mxCell id="-Ga0ZPBd0PsVxvASPmi--15" style="edgeStyle=orthogonalEdgeStyle;rounded=0;orthogonalLoop=1;jettySize=auto;html=1;entryX=0;entryY=0.5;entryDx=0;entryDy=0;endArrow=none;endFill=0;" edge="1" parent="1" source="-Ga0ZPBd0PsVxvASPmi--13" target="-Ga0ZPBd0PsVxvASPmi--4">
          <mxGeometry relative="1" as="geometry" />
        </mxCell>
        <mxCell id="-Ga0ZPBd0PsVxvASPmi--13" value="1:N&lt;br&gt;Prestado" style="rhombus;whiteSpace=wrap;html=1;" vertex="1" parent="1">
          <mxGeometry x="340" y="73" width="80" height="80" as="geometry" />
        </mxCell>
      </root>
    </mxGraphModel>
  </diagram>
  <diagram id="6qyxkliAabbCkyDoVWU-" name="Ejercicio 2">
    <mxGraphModel dx="1219" dy="462" grid="0" gridSize="10" guides="1" tooltips="1" connect="1" arrows="1" fold="1" page="0" pageScale="1" pageWidth="850" pageHeight="1100" math="0" shadow="0">
      <root>
        <mxCell id="0" />
        <mxCell id="1" parent="0" />
        <mxCell id="-NCiPquww0VE5SK8YnJO-1" style="edgeStyle=orthogonalEdgeStyle;rounded=0;orthogonalLoop=1;jettySize=auto;html=1;entryX=0;entryY=0.5;entryDx=0;entryDy=0;endArrow=none;endFill=0;" edge="1" parent="1" source="-NCiPquww0VE5SK8YnJO-9" target="-NCiPquww0VE5SK8YnJO-8">
          <mxGeometry relative="1" as="geometry">
            <mxPoint x="130" y="184" as="targetPoint" />
          </mxGeometry>
        </mxCell>
        <mxCell id="-NCiPquww0VE5SK8YnJO-16" value="&lt;font style=&quot;font-size: 15px;&quot;&gt;N&lt;/font&gt;" style="edgeLabel;html=1;align=center;verticalAlign=middle;resizable=0;points=[];" vertex="1" connectable="0" parent="-NCiPquww0VE5SK8YnJO-1">
          <mxGeometry x="-0.1" relative="1" as="geometry">
            <mxPoint y="-17" as="offset" />
          </mxGeometry>
        </mxCell>
        <mxCell id="-NCiPquww0VE5SK8YnJO-3" value="Clientes" style="whiteSpace=wrap;html=1;align=center;" vertex="1" parent="1">
          <mxGeometry x="-181" y="164" width="100" height="40" as="geometry" />
        </mxCell>
        <mxCell id="-NCiPquww0VE5SK8YnJO-4" style="edgeStyle=orthogonalEdgeStyle;rounded=0;orthogonalLoop=1;jettySize=auto;html=1;endArrow=none;endFill=0;entryX=1;entryY=0.5;entryDx=0;entryDy=0;" edge="1" parent="1" source="-NCiPquww0VE5SK8YnJO-12" target="-NCiPquww0VE5SK8YnJO-8">
          <mxGeometry relative="1" as="geometry">
            <mxPoint x="210" y="184" as="targetPoint" />
          </mxGeometry>
        </mxCell>
        <mxCell id="-NCiPquww0VE5SK8YnJO-6" value="Productos" style="whiteSpace=wrap;html=1;align=center;" vertex="1" parent="1">
          <mxGeometry x="419" y="164" width="100" height="40" as="geometry" />
        </mxCell>
        <mxCell id="-NCiPquww0VE5SK8YnJO-8" value="Pedido" style="whiteSpace=wrap;html=1;align=center;" vertex="1" parent="1">
          <mxGeometry x="110" y="164" width="100" height="40" as="geometry" />
        </mxCell>
        <mxCell id="-NCiPquww0VE5SK8YnJO-10" value="" style="edgeStyle=orthogonalEdgeStyle;rounded=0;orthogonalLoop=1;jettySize=auto;html=1;entryX=0;entryY=0.5;entryDx=0;entryDy=0;endArrow=none;endFill=0;" edge="1" parent="1" source="-NCiPquww0VE5SK8YnJO-3" target="-NCiPquww0VE5SK8YnJO-9">
          <mxGeometry relative="1" as="geometry">
            <mxPoint x="-81" y="184" as="sourcePoint" />
            <mxPoint x="110" y="184" as="targetPoint" />
          </mxGeometry>
        </mxCell>
        <mxCell id="-NCiPquww0VE5SK8YnJO-11" value="&lt;font style=&quot;font-size: 15px;&quot;&gt;1&lt;/font&gt;" style="edgeLabel;html=1;align=center;verticalAlign=middle;resizable=0;points=[];" vertex="1" connectable="0" parent="-NCiPquww0VE5SK8YnJO-10">
          <mxGeometry x="-0.0261" y="-1" relative="1" as="geometry">
            <mxPoint x="2" y="-14" as="offset" />
          </mxGeometry>
        </mxCell>
        <mxCell id="-NCiPquww0VE5SK8YnJO-9" value="1:N&lt;br&gt;Realiza" style="rhombus;whiteSpace=wrap;html=1;" vertex="1" parent="1">
          <mxGeometry x="-30" y="144" width="80" height="80" as="geometry" />
        </mxCell>
        <mxCell id="-NCiPquww0VE5SK8YnJO-13" value="" style="edgeStyle=orthogonalEdgeStyle;rounded=0;orthogonalLoop=1;jettySize=auto;html=1;endArrow=none;endFill=0;entryX=1;entryY=0.5;entryDx=0;entryDy=0;" edge="1" parent="1" source="-NCiPquww0VE5SK8YnJO-6" target="-NCiPquww0VE5SK8YnJO-12">
          <mxGeometry relative="1" as="geometry">
            <mxPoint x="419" y="184" as="sourcePoint" />
            <mxPoint x="210" y="184" as="targetPoint" />
          </mxGeometry>
        </mxCell>
        <mxCell id="-NCiPquww0VE5SK8YnJO-14" value="&lt;font style=&quot;font-size: 15px;&quot;&gt;M&lt;/font&gt;" style="edgeLabel;html=1;align=center;verticalAlign=middle;resizable=0;points=[];" vertex="1" connectable="0" parent="-NCiPquww0VE5SK8YnJO-13">
          <mxGeometry x="-0.3148" y="3" relative="1" as="geometry">
            <mxPoint x="-14" y="-18" as="offset" />
          </mxGeometry>
        </mxCell>
        <mxCell id="-NCiPquww0VE5SK8YnJO-15" value="&lt;font style=&quot;font-size: 15px;&quot;&gt;N&lt;/font&gt;" style="edgeLabel;html=1;align=center;verticalAlign=middle;resizable=0;points=[];" vertex="1" connectable="0" parent="-NCiPquww0VE5SK8YnJO-13">
          <mxGeometry y="-3" relative="1" as="geometry">
            <mxPoint x="-147" y="-11" as="offset" />
          </mxGeometry>
        </mxCell>
        <mxCell id="-NCiPquww0VE5SK8YnJO-12" value="N:M&lt;br&gt;Agrupa" style="rhombus;whiteSpace=wrap;html=1;" vertex="1" parent="1">
          <mxGeometry x="277" y="144" width="80" height="80" as="geometry" />
        </mxCell>
        <mxCell id="-NCiPquww0VE5SK8YnJO-17" value="Clientes" style="shape=table;startSize=30;container=1;collapsible=1;childLayout=tableLayout;fixedRows=1;rowLines=0;fontStyle=1;align=center;resizeLast=1;html=1;" vertex="1" parent="1">
          <mxGeometry x="-243" y="368" width="180" height="150" as="geometry" />
        </mxCell>
        <mxCell id="-NCiPquww0VE5SK8YnJO-18" value="" style="shape=tableRow;horizontal=0;startSize=0;swimlaneHead=0;swimlaneBody=0;fillColor=none;collapsible=0;dropTarget=0;points=[[0,0.5],[1,0.5]];portConstraint=eastwest;top=0;left=0;right=0;bottom=1;" vertex="1" parent="-NCiPquww0VE5SK8YnJO-17">
          <mxGeometry y="30" width="180" height="30" as="geometry" />
        </mxCell>
        <mxCell id="-NCiPquww0VE5SK8YnJO-19" value="PK" style="shape=partialRectangle;connectable=0;fillColor=none;top=0;left=0;bottom=0;right=0;fontStyle=1;overflow=hidden;whiteSpace=wrap;html=1;" vertex="1" parent="-NCiPquww0VE5SK8YnJO-18">
          <mxGeometry width="30" height="30" as="geometry">
            <mxRectangle width="30" height="30" as="alternateBounds" />
          </mxGeometry>
        </mxCell>
        <mxCell id="-NCiPquww0VE5SK8YnJO-20" value="UniqueID" style="shape=partialRectangle;connectable=0;fillColor=none;top=0;left=0;bottom=0;right=0;align=left;spacingLeft=6;fontStyle=5;overflow=hidden;whiteSpace=wrap;html=1;" vertex="1" parent="-NCiPquww0VE5SK8YnJO-18">
          <mxGeometry x="30" width="150" height="30" as="geometry">
            <mxRectangle width="150" height="30" as="alternateBounds" />
          </mxGeometry>
        </mxCell>
        <mxCell id="-NCiPquww0VE5SK8YnJO-21" value="" style="shape=tableRow;horizontal=0;startSize=0;swimlaneHead=0;swimlaneBody=0;fillColor=none;collapsible=0;dropTarget=0;points=[[0,0.5],[1,0.5]];portConstraint=eastwest;top=0;left=0;right=0;bottom=0;" vertex="1" parent="-NCiPquww0VE5SK8YnJO-17">
          <mxGeometry y="60" width="180" height="30" as="geometry" />
        </mxCell>
        <mxCell id="-NCiPquww0VE5SK8YnJO-22" value="" style="shape=partialRectangle;connectable=0;fillColor=none;top=0;left=0;bottom=0;right=0;editable=1;overflow=hidden;whiteSpace=wrap;html=1;" vertex="1" parent="-NCiPquww0VE5SK8YnJO-21">
          <mxGeometry width="30" height="30" as="geometry">
            <mxRectangle width="30" height="30" as="alternateBounds" />
          </mxGeometry>
        </mxCell>
        <mxCell id="-NCiPquww0VE5SK8YnJO-23" value="Row 1" style="shape=partialRectangle;connectable=0;fillColor=none;top=0;left=0;bottom=0;right=0;align=left;spacingLeft=6;overflow=hidden;whiteSpace=wrap;html=1;" vertex="1" parent="-NCiPquww0VE5SK8YnJO-21">
          <mxGeometry x="30" width="150" height="30" as="geometry">
            <mxRectangle width="150" height="30" as="alternateBounds" />
          </mxGeometry>
        </mxCell>
        <mxCell id="-NCiPquww0VE5SK8YnJO-24" value="" style="shape=tableRow;horizontal=0;startSize=0;swimlaneHead=0;swimlaneBody=0;fillColor=none;collapsible=0;dropTarget=0;points=[[0,0.5],[1,0.5]];portConstraint=eastwest;top=0;left=0;right=0;bottom=0;" vertex="1" parent="-NCiPquww0VE5SK8YnJO-17">
          <mxGeometry y="90" width="180" height="30" as="geometry" />
        </mxCell>
        <mxCell id="-NCiPquww0VE5SK8YnJO-25" value="" style="shape=partialRectangle;connectable=0;fillColor=none;top=0;left=0;bottom=0;right=0;editable=1;overflow=hidden;whiteSpace=wrap;html=1;" vertex="1" parent="-NCiPquww0VE5SK8YnJO-24">
          <mxGeometry width="30" height="30" as="geometry">
            <mxRectangle width="30" height="30" as="alternateBounds" />
          </mxGeometry>
        </mxCell>
        <mxCell id="-NCiPquww0VE5SK8YnJO-26" value="Row 2" style="shape=partialRectangle;connectable=0;fillColor=none;top=0;left=0;bottom=0;right=0;align=left;spacingLeft=6;overflow=hidden;whiteSpace=wrap;html=1;" vertex="1" parent="-NCiPquww0VE5SK8YnJO-24">
          <mxGeometry x="30" width="150" height="30" as="geometry">
            <mxRectangle width="150" height="30" as="alternateBounds" />
          </mxGeometry>
        </mxCell>
        <mxCell id="-NCiPquww0VE5SK8YnJO-27" value="" style="shape=tableRow;horizontal=0;startSize=0;swimlaneHead=0;swimlaneBody=0;fillColor=none;collapsible=0;dropTarget=0;points=[[0,0.5],[1,0.5]];portConstraint=eastwest;top=0;left=0;right=0;bottom=0;" vertex="1" parent="-NCiPquww0VE5SK8YnJO-17">
          <mxGeometry y="120" width="180" height="30" as="geometry" />
        </mxCell>
        <mxCell id="-NCiPquww0VE5SK8YnJO-28" value="" style="shape=partialRectangle;connectable=0;fillColor=none;top=0;left=0;bottom=0;right=0;editable=1;overflow=hidden;whiteSpace=wrap;html=1;" vertex="1" parent="-NCiPquww0VE5SK8YnJO-27">
          <mxGeometry width="30" height="30" as="geometry">
            <mxRectangle width="30" height="30" as="alternateBounds" />
          </mxGeometry>
        </mxCell>
        <mxCell id="-NCiPquww0VE5SK8YnJO-29" value="Row 3" style="shape=partialRectangle;connectable=0;fillColor=none;top=0;left=0;bottom=0;right=0;align=left;spacingLeft=6;overflow=hidden;whiteSpace=wrap;html=1;" vertex="1" parent="-NCiPquww0VE5SK8YnJO-27">
          <mxGeometry x="30" width="150" height="30" as="geometry">
            <mxRectangle width="150" height="30" as="alternateBounds" />
          </mxGeometry>
        </mxCell>
        <mxCell id="-NCiPquww0VE5SK8YnJO-30" value="Pedido" style="shape=table;startSize=30;container=1;collapsible=1;childLayout=tableLayout;fixedRows=1;rowLines=0;fontStyle=1;align=center;resizeLast=1;html=1;" vertex="1" parent="1">
          <mxGeometry x="58" y="360" width="180" height="150" as="geometry" />
        </mxCell>
        <mxCell id="-NCiPquww0VE5SK8YnJO-31" value="" style="shape=tableRow;horizontal=0;startSize=0;swimlaneHead=0;swimlaneBody=0;fillColor=none;collapsible=0;dropTarget=0;points=[[0,0.5],[1,0.5]];portConstraint=eastwest;top=0;left=0;right=0;bottom=1;" vertex="1" parent="-NCiPquww0VE5SK8YnJO-30">
          <mxGeometry y="30" width="180" height="30" as="geometry" />
        </mxCell>
        <mxCell id="-NCiPquww0VE5SK8YnJO-32" value="PK" style="shape=partialRectangle;connectable=0;fillColor=none;top=0;left=0;bottom=0;right=0;fontStyle=1;overflow=hidden;whiteSpace=wrap;html=1;" vertex="1" parent="-NCiPquww0VE5SK8YnJO-31">
          <mxGeometry width="30" height="30" as="geometry">
            <mxRectangle width="30" height="30" as="alternateBounds" />
          </mxGeometry>
        </mxCell>
        <mxCell id="-NCiPquww0VE5SK8YnJO-33" value="UniqueID" style="shape=partialRectangle;connectable=0;fillColor=none;top=0;left=0;bottom=0;right=0;align=left;spacingLeft=6;fontStyle=5;overflow=hidden;whiteSpace=wrap;html=1;" vertex="1" parent="-NCiPquww0VE5SK8YnJO-31">
          <mxGeometry x="30" width="150" height="30" as="geometry">
            <mxRectangle width="150" height="30" as="alternateBounds" />
          </mxGeometry>
        </mxCell>
        <mxCell id="-NCiPquww0VE5SK8YnJO-34" value="" style="shape=tableRow;horizontal=0;startSize=0;swimlaneHead=0;swimlaneBody=0;fillColor=none;collapsible=0;dropTarget=0;points=[[0,0.5],[1,0.5]];portConstraint=eastwest;top=0;left=0;right=0;bottom=0;" vertex="1" parent="-NCiPquww0VE5SK8YnJO-30">
          <mxGeometry y="60" width="180" height="30" as="geometry" />
        </mxCell>
        <mxCell id="-NCiPquww0VE5SK8YnJO-35" value="" style="shape=partialRectangle;connectable=0;fillColor=none;top=0;left=0;bottom=0;right=0;editable=1;overflow=hidden;whiteSpace=wrap;html=1;" vertex="1" parent="-NCiPquww0VE5SK8YnJO-34">
          <mxGeometry width="30" height="30" as="geometry">
            <mxRectangle width="30" height="30" as="alternateBounds" />
          </mxGeometry>
        </mxCell>
        <mxCell id="-NCiPquww0VE5SK8YnJO-36" value="Row 1" style="shape=partialRectangle;connectable=0;fillColor=none;top=0;left=0;bottom=0;right=0;align=left;spacingLeft=6;overflow=hidden;whiteSpace=wrap;html=1;" vertex="1" parent="-NCiPquww0VE5SK8YnJO-34">
          <mxGeometry x="30" width="150" height="30" as="geometry">
            <mxRectangle width="150" height="30" as="alternateBounds" />
          </mxGeometry>
        </mxCell>
        <mxCell id="-NCiPquww0VE5SK8YnJO-37" value="" style="shape=tableRow;horizontal=0;startSize=0;swimlaneHead=0;swimlaneBody=0;fillColor=none;collapsible=0;dropTarget=0;points=[[0,0.5],[1,0.5]];portConstraint=eastwest;top=0;left=0;right=0;bottom=0;" vertex="1" parent="-NCiPquww0VE5SK8YnJO-30">
          <mxGeometry y="90" width="180" height="30" as="geometry" />
        </mxCell>
        <mxCell id="-NCiPquww0VE5SK8YnJO-38" value="" style="shape=partialRectangle;connectable=0;fillColor=none;top=0;left=0;bottom=0;right=0;editable=1;overflow=hidden;whiteSpace=wrap;html=1;" vertex="1" parent="-NCiPquww0VE5SK8YnJO-37">
          <mxGeometry width="30" height="30" as="geometry">
            <mxRectangle width="30" height="30" as="alternateBounds" />
          </mxGeometry>
        </mxCell>
        <mxCell id="-NCiPquww0VE5SK8YnJO-39" value="Row 2" style="shape=partialRectangle;connectable=0;fillColor=none;top=0;left=0;bottom=0;right=0;align=left;spacingLeft=6;overflow=hidden;whiteSpace=wrap;html=1;" vertex="1" parent="-NCiPquww0VE5SK8YnJO-37">
          <mxGeometry x="30" width="150" height="30" as="geometry">
            <mxRectangle width="150" height="30" as="alternateBounds" />
          </mxGeometry>
        </mxCell>
        <mxCell id="-NCiPquww0VE5SK8YnJO-40" value="" style="shape=tableRow;horizontal=0;startSize=0;swimlaneHead=0;swimlaneBody=0;fillColor=none;collapsible=0;dropTarget=0;points=[[0,0.5],[1,0.5]];portConstraint=eastwest;top=0;left=0;right=0;bottom=0;" vertex="1" parent="-NCiPquww0VE5SK8YnJO-30">
          <mxGeometry y="120" width="180" height="30" as="geometry" />
        </mxCell>
        <mxCell id="-NCiPquww0VE5SK8YnJO-41" value="" style="shape=partialRectangle;connectable=0;fillColor=none;top=0;left=0;bottom=0;right=0;editable=1;overflow=hidden;whiteSpace=wrap;html=1;" vertex="1" parent="-NCiPquww0VE5SK8YnJO-40">
          <mxGeometry width="30" height="30" as="geometry">
            <mxRectangle width="30" height="30" as="alternateBounds" />
          </mxGeometry>
        </mxCell>
        <mxCell id="-NCiPquww0VE5SK8YnJO-42" value="Row 3" style="shape=partialRectangle;connectable=0;fillColor=none;top=0;left=0;bottom=0;right=0;align=left;spacingLeft=6;overflow=hidden;whiteSpace=wrap;html=1;" vertex="1" parent="-NCiPquww0VE5SK8YnJO-40">
          <mxGeometry x="30" width="150" height="30" as="geometry">
            <mxRectangle width="150" height="30" as="alternateBounds" />
          </mxGeometry>
        </mxCell>
        <mxCell id="-NCiPquww0VE5SK8YnJO-43" value="Producto" style="shape=table;startSize=30;container=1;collapsible=1;childLayout=tableLayout;fixedRows=1;rowLines=0;fontStyle=1;align=center;resizeLast=1;html=1;" vertex="1" parent="1">
          <mxGeometry x="339" y="365" width="180" height="150" as="geometry" />
        </mxCell>
        <mxCell id="-NCiPquww0VE5SK8YnJO-44" value="" style="shape=tableRow;horizontal=0;startSize=0;swimlaneHead=0;swimlaneBody=0;fillColor=none;collapsible=0;dropTarget=0;points=[[0,0.5],[1,0.5]];portConstraint=eastwest;top=0;left=0;right=0;bottom=1;" vertex="1" parent="-NCiPquww0VE5SK8YnJO-43">
          <mxGeometry y="30" width="180" height="30" as="geometry" />
        </mxCell>
        <mxCell id="-NCiPquww0VE5SK8YnJO-45" value="PK" style="shape=partialRectangle;connectable=0;fillColor=none;top=0;left=0;bottom=0;right=0;fontStyle=1;overflow=hidden;whiteSpace=wrap;html=1;" vertex="1" parent="-NCiPquww0VE5SK8YnJO-44">
          <mxGeometry width="30" height="30" as="geometry">
            <mxRectangle width="30" height="30" as="alternateBounds" />
          </mxGeometry>
        </mxCell>
        <mxCell id="-NCiPquww0VE5SK8YnJO-46" value="UniqueID" style="shape=partialRectangle;connectable=0;fillColor=none;top=0;left=0;bottom=0;right=0;align=left;spacingLeft=6;fontStyle=5;overflow=hidden;whiteSpace=wrap;html=1;" vertex="1" parent="-NCiPquww0VE5SK8YnJO-44">
          <mxGeometry x="30" width="150" height="30" as="geometry">
            <mxRectangle width="150" height="30" as="alternateBounds" />
          </mxGeometry>
        </mxCell>
        <mxCell id="-NCiPquww0VE5SK8YnJO-47" value="" style="shape=tableRow;horizontal=0;startSize=0;swimlaneHead=0;swimlaneBody=0;fillColor=none;collapsible=0;dropTarget=0;points=[[0,0.5],[1,0.5]];portConstraint=eastwest;top=0;left=0;right=0;bottom=0;" vertex="1" parent="-NCiPquww0VE5SK8YnJO-43">
          <mxGeometry y="60" width="180" height="30" as="geometry" />
        </mxCell>
        <mxCell id="-NCiPquww0VE5SK8YnJO-48" value="" style="shape=partialRectangle;connectable=0;fillColor=none;top=0;left=0;bottom=0;right=0;editable=1;overflow=hidden;whiteSpace=wrap;html=1;" vertex="1" parent="-NCiPquww0VE5SK8YnJO-47">
          <mxGeometry width="30" height="30" as="geometry">
            <mxRectangle width="30" height="30" as="alternateBounds" />
          </mxGeometry>
        </mxCell>
        <mxCell id="-NCiPquww0VE5SK8YnJO-49" value="Row 1" style="shape=partialRectangle;connectable=0;fillColor=none;top=0;left=0;bottom=0;right=0;align=left;spacingLeft=6;overflow=hidden;whiteSpace=wrap;html=1;" vertex="1" parent="-NCiPquww0VE5SK8YnJO-47">
          <mxGeometry x="30" width="150" height="30" as="geometry">
            <mxRectangle width="150" height="30" as="alternateBounds" />
          </mxGeometry>
        </mxCell>
        <mxCell id="-NCiPquww0VE5SK8YnJO-50" value="" style="shape=tableRow;horizontal=0;startSize=0;swimlaneHead=0;swimlaneBody=0;fillColor=none;collapsible=0;dropTarget=0;points=[[0,0.5],[1,0.5]];portConstraint=eastwest;top=0;left=0;right=0;bottom=0;" vertex="1" parent="-NCiPquww0VE5SK8YnJO-43">
          <mxGeometry y="90" width="180" height="30" as="geometry" />
        </mxCell>
        <mxCell id="-NCiPquww0VE5SK8YnJO-51" value="" style="shape=partialRectangle;connectable=0;fillColor=none;top=0;left=0;bottom=0;right=0;editable=1;overflow=hidden;whiteSpace=wrap;html=1;" vertex="1" parent="-NCiPquww0VE5SK8YnJO-50">
          <mxGeometry width="30" height="30" as="geometry">
            <mxRectangle width="30" height="30" as="alternateBounds" />
          </mxGeometry>
        </mxCell>
        <mxCell id="-NCiPquww0VE5SK8YnJO-52" value="Row 2" style="shape=partialRectangle;connectable=0;fillColor=none;top=0;left=0;bottom=0;right=0;align=left;spacingLeft=6;overflow=hidden;whiteSpace=wrap;html=1;" vertex="1" parent="-NCiPquww0VE5SK8YnJO-50">
          <mxGeometry x="30" width="150" height="30" as="geometry">
            <mxRectangle width="150" height="30" as="alternateBounds" />
          </mxGeometry>
        </mxCell>
        <mxCell id="-NCiPquww0VE5SK8YnJO-53" value="" style="shape=tableRow;horizontal=0;startSize=0;swimlaneHead=0;swimlaneBody=0;fillColor=none;collapsible=0;dropTarget=0;points=[[0,0.5],[1,0.5]];portConstraint=eastwest;top=0;left=0;right=0;bottom=0;" vertex="1" parent="-NCiPquww0VE5SK8YnJO-43">
          <mxGeometry y="120" width="180" height="30" as="geometry" />
        </mxCell>
        <mxCell id="-NCiPquww0VE5SK8YnJO-54" value="" style="shape=partialRectangle;connectable=0;fillColor=none;top=0;left=0;bottom=0;right=0;editable=1;overflow=hidden;whiteSpace=wrap;html=1;" vertex="1" parent="-NCiPquww0VE5SK8YnJO-53">
          <mxGeometry width="30" height="30" as="geometry">
            <mxRectangle width="30" height="30" as="alternateBounds" />
          </mxGeometry>
        </mxCell>
        <mxCell id="-NCiPquww0VE5SK8YnJO-55" value="Row 3" style="shape=partialRectangle;connectable=0;fillColor=none;top=0;left=0;bottom=0;right=0;align=left;spacingLeft=6;overflow=hidden;whiteSpace=wrap;html=1;" vertex="1" parent="-NCiPquww0VE5SK8YnJO-53">
          <mxGeometry x="30" width="150" height="30" as="geometry">
            <mxRectangle width="150" height="30" as="alternateBounds" />
          </mxGeometry>
        </mxCell>
        <mxCell id="-NCiPquww0VE5SK8YnJO-56" value="" style="edgeStyle=entityRelationEdgeStyle;fontSize=12;html=1;endArrow=ERoneToMany;rounded=0;entryX=0;entryY=0.5;entryDx=0;entryDy=0;exitX=0.989;exitY=0.733;exitDx=0;exitDy=0;exitPerimeter=0;" edge="1" parent="1" source="-NCiPquww0VE5SK8YnJO-21" target="-NCiPquww0VE5SK8YnJO-34">
          <mxGeometry width="100" height="100" relative="1" as="geometry">
            <mxPoint x="-65" y="460" as="sourcePoint" />
            <mxPoint x="35" y="360" as="targetPoint" />
          </mxGeometry>
        </mxCell>
        <mxCell id="-NCiPquww0VE5SK8YnJO-57" value="" style="edgeStyle=entityRelationEdgeStyle;fontSize=12;html=1;endArrow=ERoneToMany;rounded=0;exitX=1;exitY=0.5;exitDx=0;exitDy=0;" edge="1" parent="1" source="-NCiPquww0VE5SK8YnJO-34" target="-NCiPquww0VE5SK8YnJO-47">
          <mxGeometry width="100" height="100" relative="1" as="geometry">
            <mxPoint x="150" y="249" as="sourcePoint" />
            <mxPoint x="250" y="149" as="targetPoint" />
          </mxGeometry>
        </mxCell>
      </root>
    </mxGraphModel>
  </diagram>
  <diagram id="cXI_IpQdmyBxatJsctR_" name="Ejercicio 3">
    <mxGraphModel dx="1083" dy="385" grid="0" gridSize="10" guides="1" tooltips="1" connect="1" arrows="1" fold="1" page="0" pageScale="1" pageWidth="850" pageHeight="1100" math="0" shadow="0">
      <root>
        <mxCell id="0" />
        <mxCell id="1" parent="0" />
        <mxCell id="DR24OrFgGHsfYaBaB0U7-5" style="edgeStyle=orthogonalEdgeStyle;rounded=0;orthogonalLoop=1;jettySize=auto;html=1;entryX=0;entryY=0.5;entryDx=0;entryDy=0;endArrow=none;endFill=0;" edge="1" parent="1" source="DR24OrFgGHsfYaBaB0U7-4" target="DR24OrFgGHsfYaBaB0U7-2">
          <mxGeometry relative="1" as="geometry">
            <Array as="points">
              <mxPoint x="44" y="110" />
              <mxPoint x="44" y="110" />
            </Array>
          </mxGeometry>
        </mxCell>
        <mxCell id="DR24OrFgGHsfYaBaB0U7-14" value="&lt;font style=&quot;font-size: 15px;&quot;&gt;N&lt;/font&gt;" style="edgeLabel;html=1;align=center;verticalAlign=middle;resizable=0;points=[];" vertex="1" connectable="0" parent="DR24OrFgGHsfYaBaB0U7-5">
          <mxGeometry x="-0.32" relative="1" as="geometry">
            <mxPoint x="3" y="-12" as="offset" />
          </mxGeometry>
        </mxCell>
        <mxCell id="DR24OrFgGHsfYaBaB0U7-15" style="edgeStyle=orthogonalEdgeStyle;rounded=0;orthogonalLoop=1;jettySize=auto;html=1;entryX=0;entryY=0.5;entryDx=0;entryDy=0;endArrow=none;endFill=0;" edge="1" parent="1" source="DR24OrFgGHsfYaBaB0U7-1" target="DR24OrFgGHsfYaBaB0U7-4">
          <mxGeometry relative="1" as="geometry" />
        </mxCell>
        <mxCell id="DR24OrFgGHsfYaBaB0U7-16" value="&lt;font style=&quot;font-size: 15px;&quot;&gt;1&lt;/font&gt;" style="edgeLabel;html=1;align=center;verticalAlign=middle;resizable=0;points=[];" vertex="1" connectable="0" parent="DR24OrFgGHsfYaBaB0U7-15">
          <mxGeometry x="0.2083" relative="1" as="geometry">
            <mxPoint x="-1" y="-16" as="offset" />
          </mxGeometry>
        </mxCell>
        <mxCell id="DR24OrFgGHsfYaBaB0U7-1" value="Usuario&lt;br&gt;(Creador)" style="whiteSpace=wrap;html=1;align=center;" vertex="1" parent="1">
          <mxGeometry x="-192" y="88" width="100" height="40" as="geometry" />
        </mxCell>
        <mxCell id="DR24OrFgGHsfYaBaB0U7-6" style="edgeStyle=orthogonalEdgeStyle;rounded=0;orthogonalLoop=1;jettySize=auto;html=1;entryX=0;entryY=0.5;entryDx=0;entryDy=0;endArrow=none;endFill=0;" edge="1" parent="1" source="DR24OrFgGHsfYaBaB0U7-8" target="DR24OrFgGHsfYaBaB0U7-3">
          <mxGeometry relative="1" as="geometry" />
        </mxCell>
        <mxCell id="DR24OrFgGHsfYaBaB0U7-11" value="&lt;font style=&quot;font-size: 15px;&quot;&gt;M&lt;/font&gt;" style="edgeLabel;html=1;align=center;verticalAlign=middle;resizable=0;points=[];" vertex="1" connectable="0" parent="DR24OrFgGHsfYaBaB0U7-6">
          <mxGeometry x="0.1429" y="1" relative="1" as="geometry">
            <mxPoint x="-1" y="-16" as="offset" />
          </mxGeometry>
        </mxCell>
        <mxCell id="DR24OrFgGHsfYaBaB0U7-2" value="Proyecto" style="whiteSpace=wrap;html=1;align=center;" vertex="1" parent="1">
          <mxGeometry x="84" y="90" width="100" height="40" as="geometry" />
        </mxCell>
        <mxCell id="DR24OrFgGHsfYaBaB0U7-3" value="Usuario&lt;br&gt;(Patrocinador)" style="whiteSpace=wrap;html=1;align=center;" vertex="1" parent="1">
          <mxGeometry x="353" y="90" width="100" height="40" as="geometry" />
        </mxCell>
        <mxCell id="DR24OrFgGHsfYaBaB0U7-4" value="1:N&lt;br&gt;Propone" style="rhombus;whiteSpace=wrap;html=1;" vertex="1" parent="1">
          <mxGeometry x="-44" y="68" width="80" height="80" as="geometry" />
        </mxCell>
        <mxCell id="DR24OrFgGHsfYaBaB0U7-9" value="" style="edgeStyle=orthogonalEdgeStyle;rounded=0;orthogonalLoop=1;jettySize=auto;html=1;entryX=0;entryY=0.5;entryDx=0;entryDy=0;endArrow=none;endFill=0;" edge="1" parent="1" source="DR24OrFgGHsfYaBaB0U7-2" target="DR24OrFgGHsfYaBaB0U7-8">
          <mxGeometry relative="1" as="geometry">
            <mxPoint x="184" y="110" as="sourcePoint" />
            <mxPoint x="353" y="110" as="targetPoint" />
          </mxGeometry>
        </mxCell>
        <mxCell id="DR24OrFgGHsfYaBaB0U7-10" value="&lt;span style=&quot;font-size: 15px;&quot;&gt;N&lt;/span&gt;" style="edgeLabel;html=1;align=center;verticalAlign=middle;resizable=0;points=[];" vertex="1" connectable="0" parent="DR24OrFgGHsfYaBaB0U7-9">
          <mxGeometry x="0.1373" y="-1" relative="1" as="geometry">
            <mxPoint x="-1" y="-17" as="offset" />
          </mxGeometry>
        </mxCell>
        <mxCell id="DR24OrFgGHsfYaBaB0U7-8" value="N:M&lt;br&gt;Financiacion" style="rhombus;whiteSpace=wrap;html=1;" vertex="1" parent="1">
          <mxGeometry x="235" y="70" width="80" height="80" as="geometry" />
        </mxCell>
        <mxCell id="DR24OrFgGHsfYaBaB0U7-17" value="Usuario" style="shape=table;startSize=30;container=1;collapsible=1;childLayout=tableLayout;fixedRows=1;rowLines=0;fontStyle=1;align=center;resizeLast=1;html=1;" vertex="1" parent="1">
          <mxGeometry x="44" y="458" width="180" height="150" as="geometry" />
        </mxCell>
        <mxCell id="DR24OrFgGHsfYaBaB0U7-18" value="" style="shape=tableRow;horizontal=0;startSize=0;swimlaneHead=0;swimlaneBody=0;fillColor=none;collapsible=0;dropTarget=0;points=[[0,0.5],[1,0.5]];portConstraint=eastwest;top=0;left=0;right=0;bottom=1;" vertex="1" parent="DR24OrFgGHsfYaBaB0U7-17">
          <mxGeometry y="30" width="180" height="30" as="geometry" />
        </mxCell>
        <mxCell id="DR24OrFgGHsfYaBaB0U7-19" value="PK" style="shape=partialRectangle;connectable=0;fillColor=none;top=0;left=0;bottom=0;right=0;fontStyle=1;overflow=hidden;whiteSpace=wrap;html=1;" vertex="1" parent="DR24OrFgGHsfYaBaB0U7-18">
          <mxGeometry width="30" height="30" as="geometry">
            <mxRectangle width="30" height="30" as="alternateBounds" />
          </mxGeometry>
        </mxCell>
        <mxCell id="DR24OrFgGHsfYaBaB0U7-20" value="UniqueID" style="shape=partialRectangle;connectable=0;fillColor=none;top=0;left=0;bottom=0;right=0;align=left;spacingLeft=6;fontStyle=5;overflow=hidden;whiteSpace=wrap;html=1;" vertex="1" parent="DR24OrFgGHsfYaBaB0U7-18">
          <mxGeometry x="30" width="150" height="30" as="geometry">
            <mxRectangle width="150" height="30" as="alternateBounds" />
          </mxGeometry>
        </mxCell>
        <mxCell id="DR24OrFgGHsfYaBaB0U7-21" value="" style="shape=tableRow;horizontal=0;startSize=0;swimlaneHead=0;swimlaneBody=0;fillColor=none;collapsible=0;dropTarget=0;points=[[0,0.5],[1,0.5]];portConstraint=eastwest;top=0;left=0;right=0;bottom=0;" vertex="1" parent="DR24OrFgGHsfYaBaB0U7-17">
          <mxGeometry y="60" width="180" height="30" as="geometry" />
        </mxCell>
        <mxCell id="DR24OrFgGHsfYaBaB0U7-22" value="" style="shape=partialRectangle;connectable=0;fillColor=none;top=0;left=0;bottom=0;right=0;editable=1;overflow=hidden;whiteSpace=wrap;html=1;" vertex="1" parent="DR24OrFgGHsfYaBaB0U7-21">
          <mxGeometry width="30" height="30" as="geometry">
            <mxRectangle width="30" height="30" as="alternateBounds" />
          </mxGeometry>
        </mxCell>
        <mxCell id="DR24OrFgGHsfYaBaB0U7-23" value="Row 1" style="shape=partialRectangle;connectable=0;fillColor=none;top=0;left=0;bottom=0;right=0;align=left;spacingLeft=6;overflow=hidden;whiteSpace=wrap;html=1;" vertex="1" parent="DR24OrFgGHsfYaBaB0U7-21">
          <mxGeometry x="30" width="150" height="30" as="geometry">
            <mxRectangle width="150" height="30" as="alternateBounds" />
          </mxGeometry>
        </mxCell>
        <mxCell id="DR24OrFgGHsfYaBaB0U7-24" value="" style="shape=tableRow;horizontal=0;startSize=0;swimlaneHead=0;swimlaneBody=0;fillColor=none;collapsible=0;dropTarget=0;points=[[0,0.5],[1,0.5]];portConstraint=eastwest;top=0;left=0;right=0;bottom=0;" vertex="1" parent="DR24OrFgGHsfYaBaB0U7-17">
          <mxGeometry y="90" width="180" height="30" as="geometry" />
        </mxCell>
        <mxCell id="DR24OrFgGHsfYaBaB0U7-25" value="" style="shape=partialRectangle;connectable=0;fillColor=none;top=0;left=0;bottom=0;right=0;editable=1;overflow=hidden;whiteSpace=wrap;html=1;" vertex="1" parent="DR24OrFgGHsfYaBaB0U7-24">
          <mxGeometry width="30" height="30" as="geometry">
            <mxRectangle width="30" height="30" as="alternateBounds" />
          </mxGeometry>
        </mxCell>
        <mxCell id="DR24OrFgGHsfYaBaB0U7-26" value="Row 2" style="shape=partialRectangle;connectable=0;fillColor=none;top=0;left=0;bottom=0;right=0;align=left;spacingLeft=6;overflow=hidden;whiteSpace=wrap;html=1;" vertex="1" parent="DR24OrFgGHsfYaBaB0U7-24">
          <mxGeometry x="30" width="150" height="30" as="geometry">
            <mxRectangle width="150" height="30" as="alternateBounds" />
          </mxGeometry>
        </mxCell>
        <mxCell id="DR24OrFgGHsfYaBaB0U7-27" value="" style="shape=tableRow;horizontal=0;startSize=0;swimlaneHead=0;swimlaneBody=0;fillColor=none;collapsible=0;dropTarget=0;points=[[0,0.5],[1,0.5]];portConstraint=eastwest;top=0;left=0;right=0;bottom=0;" vertex="1" parent="DR24OrFgGHsfYaBaB0U7-17">
          <mxGeometry y="120" width="180" height="30" as="geometry" />
        </mxCell>
        <mxCell id="DR24OrFgGHsfYaBaB0U7-28" value="" style="shape=partialRectangle;connectable=0;fillColor=none;top=0;left=0;bottom=0;right=0;editable=1;overflow=hidden;whiteSpace=wrap;html=1;" vertex="1" parent="DR24OrFgGHsfYaBaB0U7-27">
          <mxGeometry width="30" height="30" as="geometry">
            <mxRectangle width="30" height="30" as="alternateBounds" />
          </mxGeometry>
        </mxCell>
        <mxCell id="DR24OrFgGHsfYaBaB0U7-29" value="Row 3" style="shape=partialRectangle;connectable=0;fillColor=none;top=0;left=0;bottom=0;right=0;align=left;spacingLeft=6;overflow=hidden;whiteSpace=wrap;html=1;" vertex="1" parent="DR24OrFgGHsfYaBaB0U7-27">
          <mxGeometry x="30" width="150" height="30" as="geometry">
            <mxRectangle width="150" height="30" as="alternateBounds" />
          </mxGeometry>
        </mxCell>
        <mxCell id="DR24OrFgGHsfYaBaB0U7-30" value="Categoria_Usuario" style="shape=table;startSize=30;container=1;collapsible=1;childLayout=tableLayout;fixedRows=1;rowLines=0;fontStyle=1;align=center;resizeLast=1;html=1;" vertex="1" parent="1">
          <mxGeometry x="-232" y="458" width="180" height="150" as="geometry" />
        </mxCell>
        <mxCell id="DR24OrFgGHsfYaBaB0U7-31" value="" style="shape=tableRow;horizontal=0;startSize=0;swimlaneHead=0;swimlaneBody=0;fillColor=none;collapsible=0;dropTarget=0;points=[[0,0.5],[1,0.5]];portConstraint=eastwest;top=0;left=0;right=0;bottom=1;" vertex="1" parent="DR24OrFgGHsfYaBaB0U7-30">
          <mxGeometry y="30" width="180" height="30" as="geometry" />
        </mxCell>
        <mxCell id="DR24OrFgGHsfYaBaB0U7-32" value="PK" style="shape=partialRectangle;connectable=0;fillColor=none;top=0;left=0;bottom=0;right=0;fontStyle=1;overflow=hidden;whiteSpace=wrap;html=1;" vertex="1" parent="DR24OrFgGHsfYaBaB0U7-31">
          <mxGeometry width="30" height="30" as="geometry">
            <mxRectangle width="30" height="30" as="alternateBounds" />
          </mxGeometry>
        </mxCell>
        <mxCell id="DR24OrFgGHsfYaBaB0U7-33" value="UniqueID" style="shape=partialRectangle;connectable=0;fillColor=none;top=0;left=0;bottom=0;right=0;align=left;spacingLeft=6;fontStyle=5;overflow=hidden;whiteSpace=wrap;html=1;" vertex="1" parent="DR24OrFgGHsfYaBaB0U7-31">
          <mxGeometry x="30" width="150" height="30" as="geometry">
            <mxRectangle width="150" height="30" as="alternateBounds" />
          </mxGeometry>
        </mxCell>
        <mxCell id="DR24OrFgGHsfYaBaB0U7-34" value="" style="shape=tableRow;horizontal=0;startSize=0;swimlaneHead=0;swimlaneBody=0;fillColor=none;collapsible=0;dropTarget=0;points=[[0,0.5],[1,0.5]];portConstraint=eastwest;top=0;left=0;right=0;bottom=0;" vertex="1" parent="DR24OrFgGHsfYaBaB0U7-30">
          <mxGeometry y="60" width="180" height="30" as="geometry" />
        </mxCell>
        <mxCell id="DR24OrFgGHsfYaBaB0U7-35" value="" style="shape=partialRectangle;connectable=0;fillColor=none;top=0;left=0;bottom=0;right=0;editable=1;overflow=hidden;whiteSpace=wrap;html=1;" vertex="1" parent="DR24OrFgGHsfYaBaB0U7-34">
          <mxGeometry width="30" height="30" as="geometry">
            <mxRectangle width="30" height="30" as="alternateBounds" />
          </mxGeometry>
        </mxCell>
        <mxCell id="DR24OrFgGHsfYaBaB0U7-36" value="Row 1" style="shape=partialRectangle;connectable=0;fillColor=none;top=0;left=0;bottom=0;right=0;align=left;spacingLeft=6;overflow=hidden;whiteSpace=wrap;html=1;" vertex="1" parent="DR24OrFgGHsfYaBaB0U7-34">
          <mxGeometry x="30" width="150" height="30" as="geometry">
            <mxRectangle width="150" height="30" as="alternateBounds" />
          </mxGeometry>
        </mxCell>
        <mxCell id="DR24OrFgGHsfYaBaB0U7-37" value="" style="shape=tableRow;horizontal=0;startSize=0;swimlaneHead=0;swimlaneBody=0;fillColor=none;collapsible=0;dropTarget=0;points=[[0,0.5],[1,0.5]];portConstraint=eastwest;top=0;left=0;right=0;bottom=0;" vertex="1" parent="DR24OrFgGHsfYaBaB0U7-30">
          <mxGeometry y="90" width="180" height="30" as="geometry" />
        </mxCell>
        <mxCell id="DR24OrFgGHsfYaBaB0U7-38" value="" style="shape=partialRectangle;connectable=0;fillColor=none;top=0;left=0;bottom=0;right=0;editable=1;overflow=hidden;whiteSpace=wrap;html=1;" vertex="1" parent="DR24OrFgGHsfYaBaB0U7-37">
          <mxGeometry width="30" height="30" as="geometry">
            <mxRectangle width="30" height="30" as="alternateBounds" />
          </mxGeometry>
        </mxCell>
        <mxCell id="DR24OrFgGHsfYaBaB0U7-39" value="Row 2" style="shape=partialRectangle;connectable=0;fillColor=none;top=0;left=0;bottom=0;right=0;align=left;spacingLeft=6;overflow=hidden;whiteSpace=wrap;html=1;" vertex="1" parent="DR24OrFgGHsfYaBaB0U7-37">
          <mxGeometry x="30" width="150" height="30" as="geometry">
            <mxRectangle width="150" height="30" as="alternateBounds" />
          </mxGeometry>
        </mxCell>
        <mxCell id="DR24OrFgGHsfYaBaB0U7-40" value="" style="shape=tableRow;horizontal=0;startSize=0;swimlaneHead=0;swimlaneBody=0;fillColor=none;collapsible=0;dropTarget=0;points=[[0,0.5],[1,0.5]];portConstraint=eastwest;top=0;left=0;right=0;bottom=0;" vertex="1" parent="DR24OrFgGHsfYaBaB0U7-30">
          <mxGeometry y="120" width="180" height="30" as="geometry" />
        </mxCell>
        <mxCell id="DR24OrFgGHsfYaBaB0U7-41" value="" style="shape=partialRectangle;connectable=0;fillColor=none;top=0;left=0;bottom=0;right=0;editable=1;overflow=hidden;whiteSpace=wrap;html=1;" vertex="1" parent="DR24OrFgGHsfYaBaB0U7-40">
          <mxGeometry width="30" height="30" as="geometry">
            <mxRectangle width="30" height="30" as="alternateBounds" />
          </mxGeometry>
        </mxCell>
        <mxCell id="DR24OrFgGHsfYaBaB0U7-42" value="Row 3" style="shape=partialRectangle;connectable=0;fillColor=none;top=0;left=0;bottom=0;right=0;align=left;spacingLeft=6;overflow=hidden;whiteSpace=wrap;html=1;" vertex="1" parent="DR24OrFgGHsfYaBaB0U7-40">
          <mxGeometry x="30" width="150" height="30" as="geometry">
            <mxRectangle width="150" height="30" as="alternateBounds" />
          </mxGeometry>
        </mxCell>
        <mxCell id="DR24OrFgGHsfYaBaB0U7-43" value="" style="edgeStyle=entityRelationEdgeStyle;fontSize=12;html=1;endArrow=ERoneToMany;rounded=0;entryX=0;entryY=0.5;entryDx=0;entryDy=0;" edge="1" parent="1" source="DR24OrFgGHsfYaBaB0U7-40" target="DR24OrFgGHsfYaBaB0U7-24">
          <mxGeometry width="100" height="100" relative="1" as="geometry">
            <mxPoint x="150" y="328" as="sourcePoint" />
            <mxPoint x="250" y="228" as="targetPoint" />
          </mxGeometry>
        </mxCell>
        <mxCell id="DR24OrFgGHsfYaBaB0U7-44" value="Proyecto" style="shape=table;startSize=30;container=1;collapsible=1;childLayout=tableLayout;fixedRows=1;rowLines=0;fontStyle=1;align=center;resizeLast=1;html=1;" vertex="1" parent="1">
          <mxGeometry x="342" y="458" width="180" height="150" as="geometry" />
        </mxCell>
        <mxCell id="DR24OrFgGHsfYaBaB0U7-45" value="" style="shape=tableRow;horizontal=0;startSize=0;swimlaneHead=0;swimlaneBody=0;fillColor=none;collapsible=0;dropTarget=0;points=[[0,0.5],[1,0.5]];portConstraint=eastwest;top=0;left=0;right=0;bottom=1;" vertex="1" parent="DR24OrFgGHsfYaBaB0U7-44">
          <mxGeometry y="30" width="180" height="30" as="geometry" />
        </mxCell>
        <mxCell id="DR24OrFgGHsfYaBaB0U7-46" value="PK" style="shape=partialRectangle;connectable=0;fillColor=none;top=0;left=0;bottom=0;right=0;fontStyle=1;overflow=hidden;whiteSpace=wrap;html=1;" vertex="1" parent="DR24OrFgGHsfYaBaB0U7-45">
          <mxGeometry width="30" height="30" as="geometry">
            <mxRectangle width="30" height="30" as="alternateBounds" />
          </mxGeometry>
        </mxCell>
        <mxCell id="DR24OrFgGHsfYaBaB0U7-47" value="UniqueID" style="shape=partialRectangle;connectable=0;fillColor=none;top=0;left=0;bottom=0;right=0;align=left;spacingLeft=6;fontStyle=5;overflow=hidden;whiteSpace=wrap;html=1;" vertex="1" parent="DR24OrFgGHsfYaBaB0U7-45">
          <mxGeometry x="30" width="150" height="30" as="geometry">
            <mxRectangle width="150" height="30" as="alternateBounds" />
          </mxGeometry>
        </mxCell>
        <mxCell id="DR24OrFgGHsfYaBaB0U7-48" value="" style="shape=tableRow;horizontal=0;startSize=0;swimlaneHead=0;swimlaneBody=0;fillColor=none;collapsible=0;dropTarget=0;points=[[0,0.5],[1,0.5]];portConstraint=eastwest;top=0;left=0;right=0;bottom=0;" vertex="1" parent="DR24OrFgGHsfYaBaB0U7-44">
          <mxGeometry y="60" width="180" height="30" as="geometry" />
        </mxCell>
        <mxCell id="DR24OrFgGHsfYaBaB0U7-49" value="" style="shape=partialRectangle;connectable=0;fillColor=none;top=0;left=0;bottom=0;right=0;editable=1;overflow=hidden;whiteSpace=wrap;html=1;" vertex="1" parent="DR24OrFgGHsfYaBaB0U7-48">
          <mxGeometry width="30" height="30" as="geometry">
            <mxRectangle width="30" height="30" as="alternateBounds" />
          </mxGeometry>
        </mxCell>
        <mxCell id="DR24OrFgGHsfYaBaB0U7-50" value="Row 1" style="shape=partialRectangle;connectable=0;fillColor=none;top=0;left=0;bottom=0;right=0;align=left;spacingLeft=6;overflow=hidden;whiteSpace=wrap;html=1;" vertex="1" parent="DR24OrFgGHsfYaBaB0U7-48">
          <mxGeometry x="30" width="150" height="30" as="geometry">
            <mxRectangle width="150" height="30" as="alternateBounds" />
          </mxGeometry>
        </mxCell>
        <mxCell id="DR24OrFgGHsfYaBaB0U7-51" value="" style="shape=tableRow;horizontal=0;startSize=0;swimlaneHead=0;swimlaneBody=0;fillColor=none;collapsible=0;dropTarget=0;points=[[0,0.5],[1,0.5]];portConstraint=eastwest;top=0;left=0;right=0;bottom=0;" vertex="1" parent="DR24OrFgGHsfYaBaB0U7-44">
          <mxGeometry y="90" width="180" height="30" as="geometry" />
        </mxCell>
        <mxCell id="DR24OrFgGHsfYaBaB0U7-52" value="" style="shape=partialRectangle;connectable=0;fillColor=none;top=0;left=0;bottom=0;right=0;editable=1;overflow=hidden;whiteSpace=wrap;html=1;" vertex="1" parent="DR24OrFgGHsfYaBaB0U7-51">
          <mxGeometry width="30" height="30" as="geometry">
            <mxRectangle width="30" height="30" as="alternateBounds" />
          </mxGeometry>
        </mxCell>
        <mxCell id="DR24OrFgGHsfYaBaB0U7-53" value="Row 2" style="shape=partialRectangle;connectable=0;fillColor=none;top=0;left=0;bottom=0;right=0;align=left;spacingLeft=6;overflow=hidden;whiteSpace=wrap;html=1;" vertex="1" parent="DR24OrFgGHsfYaBaB0U7-51">
          <mxGeometry x="30" width="150" height="30" as="geometry">
            <mxRectangle width="150" height="30" as="alternateBounds" />
          </mxGeometry>
        </mxCell>
        <mxCell id="DR24OrFgGHsfYaBaB0U7-54" value="" style="shape=tableRow;horizontal=0;startSize=0;swimlaneHead=0;swimlaneBody=0;fillColor=none;collapsible=0;dropTarget=0;points=[[0,0.5],[1,0.5]];portConstraint=eastwest;top=0;left=0;right=0;bottom=0;" vertex="1" parent="DR24OrFgGHsfYaBaB0U7-44">
          <mxGeometry y="120" width="180" height="30" as="geometry" />
        </mxCell>
        <mxCell id="DR24OrFgGHsfYaBaB0U7-55" value="" style="shape=partialRectangle;connectable=0;fillColor=none;top=0;left=0;bottom=0;right=0;editable=1;overflow=hidden;whiteSpace=wrap;html=1;" vertex="1" parent="DR24OrFgGHsfYaBaB0U7-54">
          <mxGeometry width="30" height="30" as="geometry">
            <mxRectangle width="30" height="30" as="alternateBounds" />
          </mxGeometry>
        </mxCell>
        <mxCell id="DR24OrFgGHsfYaBaB0U7-56" value="Row 3" style="shape=partialRectangle;connectable=0;fillColor=none;top=0;left=0;bottom=0;right=0;align=left;spacingLeft=6;overflow=hidden;whiteSpace=wrap;html=1;" vertex="1" parent="DR24OrFgGHsfYaBaB0U7-54">
          <mxGeometry x="30" width="150" height="30" as="geometry">
            <mxRectangle width="150" height="30" as="alternateBounds" />
          </mxGeometry>
        </mxCell>
        <mxCell id="DR24OrFgGHsfYaBaB0U7-57" value="" style="edgeStyle=entityRelationEdgeStyle;fontSize=12;html=1;endArrow=ERoneToMany;rounded=0;exitX=1.006;exitY=0.733;exitDx=0;exitDy=0;exitPerimeter=0;entryX=0.028;entryY=0.167;entryDx=0;entryDy=0;entryPerimeter=0;" edge="1" parent="1" source="DR24OrFgGHsfYaBaB0U7-18" target="DR24OrFgGHsfYaBaB0U7-51">
          <mxGeometry width="100" height="100" relative="1" as="geometry">
            <mxPoint x="150" y="328" as="sourcePoint" />
            <mxPoint x="250" y="228" as="targetPoint" />
          </mxGeometry>
        </mxCell>
      </root>
    </mxGraphModel>
  </diagram>
  <diagram id="kGaDHQSk8eKRedKtVGdz" name="Ejercicio 4">
    <mxGraphModel dx="1177" dy="385" grid="0" gridSize="10" guides="1" tooltips="1" connect="1" arrows="1" fold="1" page="0" pageScale="1" pageWidth="850" pageHeight="1100" math="0" shadow="0">
      <root>
        <mxCell id="0" />
        <mxCell id="1" parent="0" />
        <mxCell id="spr0hmXpWGZS_exHE0Aa-1" style="edgeStyle=orthogonalEdgeStyle;rounded=0;orthogonalLoop=1;jettySize=auto;html=1;entryX=0;entryY=0.5;entryDx=0;entryDy=0;endArrow=none;endFill=0;" edge="1" parent="1" source="spr0hmXpWGZS_exHE0Aa-4" target="spr0hmXpWGZS_exHE0Aa-5">
          <mxGeometry relative="1" as="geometry" />
        </mxCell>
        <mxCell id="spr0hmXpWGZS_exHE0Aa-2" value="N" style="edgeLabel;html=1;align=center;verticalAlign=middle;resizable=0;points=[];" vertex="1" connectable="0" parent="spr0hmXpWGZS_exHE0Aa-1">
          <mxGeometry x="-0.7195" y="-1" relative="1" as="geometry">
            <mxPoint x="1" y="-14" as="offset" />
          </mxGeometry>
        </mxCell>
        <mxCell id="spr0hmXpWGZS_exHE0Aa-3" value="M" style="edgeLabel;html=1;align=center;verticalAlign=middle;resizable=0;points=[];" vertex="1" connectable="0" parent="spr0hmXpWGZS_exHE0Aa-1">
          <mxGeometry x="0.7064" relative="1" as="geometry">
            <mxPoint x="-2" y="-14" as="offset" />
          </mxGeometry>
        </mxCell>
        <mxCell id="spr0hmXpWGZS_exHE0Aa-4" value="Paciente" style="whiteSpace=wrap;html=1;align=center;" vertex="1" parent="1">
          <mxGeometry x="-31" y="218" width="100" height="40" as="geometry" />
        </mxCell>
        <mxCell id="spr0hmXpWGZS_exHE0Aa-5" value="Medico" style="whiteSpace=wrap;html=1;align=center;" vertex="1" parent="1">
          <mxGeometry x="287" y="218" width="100" height="40" as="geometry" />
        </mxCell>
        <mxCell id="spr0hmXpWGZS_exHE0Aa-6" value="N:M&lt;br&gt;Consulta" style="rhombus;whiteSpace=wrap;html=1;" vertex="1" parent="1">
          <mxGeometry x="139.00285714285712" y="198" width="80" height="80" as="geometry" />
        </mxCell>
      </root>
    </mxGraphModel>
  </diagram>
  <diagram id="CSCLjDm57PFucp8WrnkZ" name="Ejercicio 5">
    <mxGraphModel dx="971" dy="323" grid="0" gridSize="10" guides="1" tooltips="1" connect="1" arrows="1" fold="1" page="0" pageScale="1" pageWidth="850" pageHeight="1100" math="0" shadow="0">
      <root>
        <mxCell id="0" />
        <mxCell id="1" parent="0" />
        <mxCell id="bVuXYrYkQ5V-0zp92vAv-4" style="edgeStyle=orthogonalEdgeStyle;rounded=0;orthogonalLoop=1;jettySize=auto;html=1;endArrow=none;endFill=0;" edge="1" parent="1" source="bVuXYrYkQ5V-0zp92vAv-1" target="bVuXYrYkQ5V-0zp92vAv-2">
          <mxGeometry relative="1" as="geometry" />
        </mxCell>
        <mxCell id="bVuXYrYkQ5V-0zp92vAv-8" value="1" style="edgeLabel;html=1;align=center;verticalAlign=middle;resizable=0;points=[];" vertex="1" connectable="0" parent="bVuXYrYkQ5V-0zp92vAv-4">
          <mxGeometry x="-0.6634" y="-1" relative="1" as="geometry">
            <mxPoint x="-1" y="-11" as="offset" />
          </mxGeometry>
        </mxCell>
        <mxCell id="bVuXYrYkQ5V-0zp92vAv-9" value="N" style="edgeLabel;html=1;align=center;verticalAlign=middle;resizable=0;points=[];" vertex="1" connectable="0" parent="bVuXYrYkQ5V-0zp92vAv-4">
          <mxGeometry x="0.6396" y="-1" relative="1" as="geometry">
            <mxPoint x="2" y="-11" as="offset" />
          </mxGeometry>
        </mxCell>
        <mxCell id="bVuXYrYkQ5V-0zp92vAv-1" value="Usuario" style="whiteSpace=wrap;html=1;align=center;" vertex="1" parent="1">
          <mxGeometry x="-150" y="140" width="100" height="40" as="geometry" />
        </mxCell>
        <mxCell id="bVuXYrYkQ5V-0zp92vAv-5" style="edgeStyle=orthogonalEdgeStyle;rounded=0;orthogonalLoop=1;jettySize=auto;html=1;entryX=0;entryY=0.5;entryDx=0;entryDy=0;endArrow=none;endFill=0;" edge="1" parent="1" source="bVuXYrYkQ5V-0zp92vAv-2" target="bVuXYrYkQ5V-0zp92vAv-7">
          <mxGeometry relative="1" as="geometry" />
        </mxCell>
        <mxCell id="bVuXYrYkQ5V-0zp92vAv-10" value="0-1" style="edgeLabel;html=1;align=center;verticalAlign=middle;resizable=0;points=[];" vertex="1" connectable="0" parent="bVuXYrYkQ5V-0zp92vAv-5">
          <mxGeometry x="-0.6861" relative="1" as="geometry">
            <mxPoint x="20" y="-11" as="offset" />
          </mxGeometry>
        </mxCell>
        <mxCell id="bVuXYrYkQ5V-0zp92vAv-2" value="Publicacion" style="whiteSpace=wrap;html=1;align=center;" vertex="1" parent="1">
          <mxGeometry x="152" y="140" width="100" height="40" as="geometry" />
        </mxCell>
        <mxCell id="bVuXYrYkQ5V-0zp92vAv-3" value="Comentarios" style="whiteSpace=wrap;html=1;align=center;" vertex="1" parent="1">
          <mxGeometry x="307" y="362" width="100" height="40" as="geometry" />
        </mxCell>
        <mxCell id="bVuXYrYkQ5V-0zp92vAv-6" value="1:N&lt;br&gt;Hacer" style="rhombus;whiteSpace=wrap;html=1;" vertex="1" parent="1">
          <mxGeometry x="10.999999999999957" y="119.99999999999997" width="80" height="80" as="geometry" />
        </mxCell>
        <mxCell id="bVuXYrYkQ5V-0zp92vAv-7" value="0-1:N&lt;br&gt;Tiene" style="rhombus;whiteSpace=wrap;html=1;" vertex="1" parent="1">
          <mxGeometry x="317.0000000000001" y="119.99999999999997" width="80" height="80" as="geometry" />
        </mxCell>
        <mxCell id="bVuXYrYkQ5V-0zp92vAv-11" style="edgeStyle=orthogonalEdgeStyle;rounded=0;orthogonalLoop=1;jettySize=auto;html=1;entryX=0.5;entryY=0.954;entryDx=0;entryDy=0;entryPerimeter=0;endArrow=none;endFill=0;" edge="1" parent="1" source="bVuXYrYkQ5V-0zp92vAv-3" target="bVuXYrYkQ5V-0zp92vAv-7">
          <mxGeometry relative="1" as="geometry" />
        </mxCell>
        <mxCell id="bVuXYrYkQ5V-0zp92vAv-16" value="N" style="edgeLabel;html=1;align=center;verticalAlign=middle;resizable=0;points=[];" vertex="1" connectable="0" parent="bVuXYrYkQ5V-0zp92vAv-11">
          <mxGeometry x="-0.0415" y="-1" relative="1" as="geometry">
            <mxPoint x="9" as="offset" />
          </mxGeometry>
        </mxCell>
        <mxCell id="bVuXYrYkQ5V-0zp92vAv-12" style="edgeStyle=orthogonalEdgeStyle;rounded=0;orthogonalLoop=1;jettySize=auto;html=1;entryX=-0.003;entryY=0.629;entryDx=0;entryDy=0;entryPerimeter=0;endArrow=none;endFill=0;" edge="1" parent="1" source="bVuXYrYkQ5V-0zp92vAv-13" target="bVuXYrYkQ5V-0zp92vAv-3">
          <mxGeometry relative="1" as="geometry">
            <Array as="points">
              <mxPoint x="-102" y="387" />
            </Array>
          </mxGeometry>
        </mxCell>
        <mxCell id="bVuXYrYkQ5V-0zp92vAv-15" value="N" style="edgeLabel;html=1;align=center;verticalAlign=middle;resizable=0;points=[];" vertex="1" connectable="0" parent="bVuXYrYkQ5V-0zp92vAv-12">
          <mxGeometry x="0.1294" y="-1" relative="1" as="geometry">
            <mxPoint x="-12" y="-10" as="offset" />
          </mxGeometry>
        </mxCell>
        <mxCell id="bVuXYrYkQ5V-0zp92vAv-14" value="1" style="edgeStyle=orthogonalEdgeStyle;rounded=0;orthogonalLoop=1;jettySize=auto;html=1;entryX=0.5;entryY=0;entryDx=0;entryDy=0;endArrow=none;endFill=0;" edge="1" parent="1" source="bVuXYrYkQ5V-0zp92vAv-1" target="bVuXYrYkQ5V-0zp92vAv-13">
          <mxGeometry y="10" relative="1" as="geometry">
            <mxPoint x="-102" y="180" as="sourcePoint" />
            <mxPoint x="307" y="387" as="targetPoint" />
            <Array as="points" />
            <mxPoint as="offset" />
          </mxGeometry>
        </mxCell>
        <mxCell id="bVuXYrYkQ5V-0zp92vAv-13" value="1:N&lt;br&gt;Escriben" style="rhombus;whiteSpace=wrap;html=1;" vertex="1" parent="1">
          <mxGeometry x="-140.00428571428577" y="348.0042857142857" width="80" height="80" as="geometry" />
        </mxCell>
      </root>
    </mxGraphModel>
  </diagram>
  <diagram id="YZKwpbFR8vdC4lAJ1fv1" name="Ejercicio 6">
    <mxGraphModel dx="1080" dy="385" grid="0" gridSize="10" guides="1" tooltips="1" connect="1" arrows="1" fold="1" page="0" pageScale="1" pageWidth="850" pageHeight="1100" math="0" shadow="0">
      <root>
        <mxCell id="0" />
        <mxCell id="1" parent="0" />
        <mxCell id="UdaDDCNELxfePNWi1dYg-1" value="Clases" style="whiteSpace=wrap;html=1;align=center;" vertex="1" parent="1">
          <mxGeometry x="150" y="128" width="100" height="40" as="geometry" />
        </mxCell>
        <mxCell id="UdaDDCNELxfePNWi1dYg-6" style="edgeStyle=orthogonalEdgeStyle;rounded=0;orthogonalLoop=1;jettySize=auto;html=1;entryX=1;entryY=0.5;entryDx=0;entryDy=0;endArrow=none;endFill=0;" edge="1" parent="1" source="UdaDDCNELxfePNWi1dYg-2" target="UdaDDCNELxfePNWi1dYg-1">
          <mxGeometry relative="1" as="geometry" />
        </mxCell>
        <mxCell id="UdaDDCNELxfePNWi1dYg-12" value="1" style="edgeLabel;html=1;align=center;verticalAlign=middle;resizable=0;points=[];" vertex="1" connectable="0" parent="UdaDDCNELxfePNWi1dYg-6">
          <mxGeometry x="-0.6866" relative="1" as="geometry">
            <mxPoint y="-12" as="offset" />
          </mxGeometry>
        </mxCell>
        <mxCell id="UdaDDCNELxfePNWi1dYg-13" value="1" style="edgeLabel;html=1;align=center;verticalAlign=middle;resizable=0;points=[];" vertex="1" connectable="0" parent="UdaDDCNELxfePNWi1dYg-6">
          <mxGeometry x="0.6909" y="-2" relative="1" as="geometry">
            <mxPoint x="2" y="-10" as="offset" />
          </mxGeometry>
        </mxCell>
        <mxCell id="UdaDDCNELxfePNWi1dYg-2" value="Profesores" style="whiteSpace=wrap;html=1;align=center;" vertex="1" parent="1">
          <mxGeometry x="427" y="128" width="100" height="40" as="geometry" />
        </mxCell>
        <mxCell id="UdaDDCNELxfePNWi1dYg-4" style="edgeStyle=orthogonalEdgeStyle;rounded=0;orthogonalLoop=1;jettySize=auto;html=1;entryX=0;entryY=0.5;entryDx=0;entryDy=0;endArrow=none;endFill=0;" edge="1" parent="1" source="UdaDDCNELxfePNWi1dYg-7" target="UdaDDCNELxfePNWi1dYg-1">
          <mxGeometry relative="1" as="geometry" />
        </mxCell>
        <mxCell id="UdaDDCNELxfePNWi1dYg-11" value="N" style="edgeLabel;html=1;align=center;verticalAlign=middle;resizable=0;points=[];" vertex="1" connectable="0" parent="UdaDDCNELxfePNWi1dYg-4">
          <mxGeometry x="-0.0414" y="-1" relative="1" as="geometry">
            <mxPoint x="1" y="-12" as="offset" />
          </mxGeometry>
        </mxCell>
        <mxCell id="UdaDDCNELxfePNWi1dYg-3" value="Estudiantes" style="whiteSpace=wrap;html=1;align=center;" vertex="1" parent="1">
          <mxGeometry x="-121" y="128" width="100" height="40" as="geometry" />
        </mxCell>
        <mxCell id="UdaDDCNELxfePNWi1dYg-5" style="edgeStyle=orthogonalEdgeStyle;rounded=0;orthogonalLoop=1;jettySize=auto;html=1;exitX=0.5;exitY=1;exitDx=0;exitDy=0;" edge="1" parent="1" source="UdaDDCNELxfePNWi1dYg-2" target="UdaDDCNELxfePNWi1dYg-2">
          <mxGeometry relative="1" as="geometry" />
        </mxCell>
        <mxCell id="UdaDDCNELxfePNWi1dYg-8" value="" style="edgeStyle=orthogonalEdgeStyle;rounded=0;orthogonalLoop=1;jettySize=auto;html=1;entryX=0;entryY=0.5;entryDx=0;entryDy=0;endArrow=none;endFill=0;" edge="1" parent="1" source="UdaDDCNELxfePNWi1dYg-3" target="UdaDDCNELxfePNWi1dYg-7">
          <mxGeometry relative="1" as="geometry">
            <mxPoint x="-21" y="148" as="sourcePoint" />
            <mxPoint x="150" y="148" as="targetPoint" />
          </mxGeometry>
        </mxCell>
        <mxCell id="UdaDDCNELxfePNWi1dYg-10" value="1" style="edgeLabel;html=1;align=center;verticalAlign=middle;resizable=0;points=[];" vertex="1" connectable="0" parent="UdaDDCNELxfePNWi1dYg-8">
          <mxGeometry x="-0.0307" relative="1" as="geometry">
            <mxPoint x="2" y="-9" as="offset" />
          </mxGeometry>
        </mxCell>
        <mxCell id="UdaDDCNELxfePNWi1dYg-7" value="1:N&lt;br&gt;Se inscribe" style="rhombus;whiteSpace=wrap;html=1;" vertex="1" parent="1">
          <mxGeometry x="24.00285714285711" y="108.00333333333326" width="80" height="80" as="geometry" />
        </mxCell>
        <mxCell id="UdaDDCNELxfePNWi1dYg-9" value="&lt;div&gt;1:1&lt;br&gt;Imparte&lt;/div&gt;" style="rhombus;whiteSpace=wrap;html=1;" vertex="1" parent="1">
          <mxGeometry x="309.0038095238094" y="108.00476190476192" width="80" height="80" as="geometry" />
        </mxCell>
      </root>
    </mxGraphModel>
  </diagram>
  <diagram id="UGqJADxOD_7eGdYb1yoA" name="Ejercicio 7">
    <mxGraphModel dx="1219" dy="462" grid="0" gridSize="10" guides="1" tooltips="1" connect="1" arrows="1" fold="1" page="0" pageScale="1" pageWidth="850" pageHeight="1100" math="0" shadow="0">
      <root>
        <mxCell id="0" />
        <mxCell id="1" parent="0" />
        <mxCell id="XG_E9BtEvUDYbyMHP7X--1" value="Visualizacion" style="whiteSpace=wrap;html=1;align=center;" vertex="1" parent="1">
          <mxGeometry x="137" y="133" width="100" height="40" as="geometry" />
        </mxCell>
        <mxCell id="XG_E9BtEvUDYbyMHP7X--5" style="edgeStyle=orthogonalEdgeStyle;rounded=0;orthogonalLoop=1;jettySize=auto;html=1;endArrow=none;endFill=0;" edge="1" parent="1" source="XG_E9BtEvUDYbyMHP7X--2" target="XG_E9BtEvUDYbyMHP7X--1">
          <mxGeometry relative="1" as="geometry" />
        </mxCell>
        <mxCell id="XG_E9BtEvUDYbyMHP7X--10" value="N" style="edgeLabel;html=1;align=center;verticalAlign=middle;resizable=0;points=[];" vertex="1" connectable="0" parent="XG_E9BtEvUDYbyMHP7X--5">
          <mxGeometry x="0.7116" y="1" relative="1" as="geometry">
            <mxPoint x="3" y="-14" as="offset" />
          </mxGeometry>
        </mxCell>
        <mxCell id="XG_E9BtEvUDYbyMHP7X--11" value="1" style="edgeLabel;html=1;align=center;verticalAlign=middle;resizable=0;points=[];" vertex="1" connectable="0" parent="XG_E9BtEvUDYbyMHP7X--5">
          <mxGeometry x="-0.6954" y="-1" relative="1" as="geometry">
            <mxPoint y="-12" as="offset" />
          </mxGeometry>
        </mxCell>
        <mxCell id="XG_E9BtEvUDYbyMHP7X--2" value="Pelicula" style="whiteSpace=wrap;html=1;align=center;" vertex="1" parent="1">
          <mxGeometry x="449" y="133" width="100" height="40" as="geometry" />
        </mxCell>
        <mxCell id="XG_E9BtEvUDYbyMHP7X--4" style="edgeStyle=orthogonalEdgeStyle;rounded=0;orthogonalLoop=1;jettySize=auto;html=1;entryX=0;entryY=0.5;entryDx=0;entryDy=0;endArrow=none;endFill=0;" edge="1" parent="1" source="XG_E9BtEvUDYbyMHP7X--3" target="XG_E9BtEvUDYbyMHP7X--1">
          <mxGeometry relative="1" as="geometry" />
        </mxCell>
        <mxCell id="XG_E9BtEvUDYbyMHP7X--8" value="1" style="edgeLabel;html=1;align=center;verticalAlign=middle;resizable=0;points=[];" vertex="1" connectable="0" parent="XG_E9BtEvUDYbyMHP7X--4">
          <mxGeometry x="-0.6523" relative="1" as="geometry">
            <mxPoint x="-1" y="-10" as="offset" />
          </mxGeometry>
        </mxCell>
        <mxCell id="XG_E9BtEvUDYbyMHP7X--9" value="N" style="edgeLabel;html=1;align=center;verticalAlign=middle;resizable=0;points=[];" vertex="1" connectable="0" parent="XG_E9BtEvUDYbyMHP7X--4">
          <mxGeometry x="0.6631" relative="1" as="geometry">
            <mxPoint x="1" y="-11" as="offset" />
          </mxGeometry>
        </mxCell>
        <mxCell id="XG_E9BtEvUDYbyMHP7X--3" value="Usuario" style="whiteSpace=wrap;html=1;align=center;" vertex="1" parent="1">
          <mxGeometry x="-175" y="133" width="100" height="40" as="geometry" />
        </mxCell>
        <mxCell id="XG_E9BtEvUDYbyMHP7X--6" value="1:N&lt;br&gt;Genera" style="rhombus;whiteSpace=wrap;html=1;" vertex="1" parent="1">
          <mxGeometry x="-9.002857142857124" y="113.00428571428567" width="80" height="80" as="geometry" />
        </mxCell>
        <mxCell id="XG_E9BtEvUDYbyMHP7X--7" value="1:N&lt;br&gt;Vistas" style="rhombus;whiteSpace=wrap;html=1;" vertex="1" parent="1">
          <mxGeometry x="303.0042857142858" y="113.00857142857144" width="80" height="80" as="geometry" />
        </mxCell>
      </root>
    </mxGraphModel>
  </diagram>
</mxfile>
